<?xml version="1.0" encoding="UTF-8" standalone="no"?>
<!DOCTYPE svg PUBLIC "-//W3C//DTD SVG 1.1//EN" "http://www.w3.org/Graphics/SVG/1.1/DTD/svg11.dtd">
<svg width="100%" height="100%" viewBox="0 0 264 264" version="1.1" xmlns="http://www.w3.org/2000/svg" xmlns:xlink="http://www.w3.org/1999/xlink" xml:space="preserve" xmlns:serif="http://www.serif.com/" style="fill-rule:evenodd;clip-rule:evenodd;stroke-linejoin:round;stroke-miterlimit:2;">
    <g transform="matrix(1,0,0,1,-1374.27002,-227.029053)">
        <g id="emo_3">
            <path d="M1505.86,402.038C1490.43,402.038 1476.59,411.216 1470.58,425.421C1469.23,428.614 1470.72,432.296 1473.91,433.647C1474.71,433.984 1475.54,434.144 1476.35,434.144C1478.8,434.144 1481.13,432.706 1482.14,430.311C1486.18,420.761 1495.49,414.59 1505.86,414.59C1516.15,414.59 1525.44,420.702 1529.51,430.161C1530.88,433.345 1534.57,434.816 1537.76,433.444C1540.94,432.074 1542.41,428.382 1541.04,425.198C1534.98,411.128 1521.17,402.038 1505.86,402.038Z" style="fill:rgb(51,51,51);fill-rule:nonzero;"/>
            <path d="M1590.39,443.149C1567.86,465.672 1537.92,478.076 1506.07,478.076C1474.21,478.076 1444.27,465.672 1421.75,443.149C1399.22,420.626 1386.82,390.681 1386.82,358.829C1386.82,326.977 1399.22,297.031 1421.75,274.509C1444.27,251.985 1474.21,239.582 1506.07,239.582C1537.92,239.582 1567.86,251.985 1590.39,274.509C1612.91,297.031 1625.31,326.977 1625.31,358.829C1625.31,390.681 1612.91,420.626 1590.39,443.149ZM1506.07,227.029C1470.86,227.029 1437.76,240.739 1412.87,265.633C1387.98,290.526 1374.27,323.624 1374.27,358.829C1374.27,394.034 1387.98,427.131 1412.87,452.024C1437.76,476.918 1470.86,490.628 1506.07,490.628C1541.27,490.628 1574.37,476.918 1599.26,452.024C1624.16,427.131 1637.87,394.034 1637.87,358.829C1637.87,323.624 1624.16,290.526 1599.26,265.633C1574.37,240.739 1541.27,227.029 1506.07,227.029Z" style="fill:rgb(51,51,51);fill-rule:nonzero;"/>
            <path d="M1474.51,346.551C1475.77,343.323 1474.17,339.684 1470.94,338.422L1438.81,325.87C1435.58,324.61 1431.94,326.204 1430.68,329.432C1429.42,332.661 1431.01,336.3 1434.24,337.562L1466.38,350.114C1467.13,350.407 1467.9,350.545 1468.66,350.545C1471.17,350.545 1473.54,349.03 1474.51,346.551Z" style="fill:rgb(51,51,51);fill-rule:nonzero;"/>
            <path d="M1573.32,325.87L1541.19,338.422C1537.96,339.684 1536.37,343.323 1537.63,346.551C1538.59,349.03 1540.96,350.545 1543.47,350.545C1544.23,350.545 1545.01,350.407 1545.76,350.114L1577.89,337.562C1581.12,336.3 1582.71,332.661 1581.45,329.432C1580.19,326.204 1576.55,324.61 1573.32,325.87Z" style="fill:rgb(51,51,51);fill-rule:nonzero;"/>
        </g>
    </g>
</svg>
