<?xml version="1.0" encoding="UTF-8" standalone="no"?>
<!DOCTYPE svg PUBLIC "-//W3C//DTD SVG 1.1//EN" "http://www.w3.org/Graphics/SVG/1.1/DTD/svg11.dtd">
<svg width="100%" height="100%" viewBox="0 0 264 264" version="1.1" xmlns="http://www.w3.org/2000/svg" xmlns:xlink="http://www.w3.org/1999/xlink" xml:space="preserve" xmlns:serif="http://www.serif.com/" style="fill-rule:evenodd;clip-rule:evenodd;stroke-linejoin:round;stroke-miterlimit:2;">
    <g transform="matrix(1,0,0,1,-862.133972,-1209.369995)">
        <g id="emo_10">
            <path d="M1078.25,1425.49C1055.73,1448.01 1025.79,1460.42 993.933,1460.42C962.081,1460.42 932.136,1448.01 909.613,1425.49C887.09,1402.97 874.686,1373.02 874.686,1341.17C874.686,1309.32 887.09,1279.37 909.613,1256.85C932.136,1234.33 962.081,1221.92 993.933,1221.92C1025.79,1221.92 1055.73,1234.33 1078.25,1256.85C1100.78,1279.37 1113.18,1309.32 1113.18,1341.17C1113.18,1373.02 1100.78,1402.97 1078.25,1425.49ZM993.933,1209.37C958.728,1209.37 925.63,1223.08 900.737,1247.98C875.843,1272.87 862.134,1305.97 862.134,1341.17C862.134,1376.38 875.843,1409.47 900.737,1434.37C925.63,1459.26 958.728,1472.97 993.933,1472.97C1029.14,1472.97 1062.24,1459.26 1087.13,1434.37C1112.02,1409.47 1125.73,1376.38 1125.73,1341.17C1125.73,1305.97 1112.02,1272.87 1087.13,1247.98C1062.24,1223.08 1029.14,1209.37 993.933,1209.37Z" style="fill:rgb(51,51,51);fill-rule:nonzero;"/>
            <path d="M964.997,1309.99C961.806,1308.64 958.122,1310.14 956.772,1313.33C954.759,1318.08 950.121,1321.16 944.955,1321.16C939.825,1321.16 935.199,1318.12 933.17,1313.4C931.8,1310.22 928.107,1308.75 924.924,1310.12C921.74,1311.49 920.271,1315.18 921.641,1318.37C925.655,1327.69 934.806,1333.71 944.955,1333.71C955.175,1333.71 964.351,1327.63 968.333,1318.22C969.683,1315.02 968.189,1311.34 964.997,1309.99Z" style="fill:rgb(51,51,51);fill-rule:nonzero;"/>
            <path d="M1062.9,1309.99C1059.71,1308.64 1056.03,1310.14 1054.68,1313.33C1052.67,1318.08 1048.03,1321.16 1042.86,1321.16C1037.73,1321.16 1033.11,1318.12 1031.079,1313.4C1029.709,1310.22 1026.02,1308.75 1022.83,1310.12C1019.65,1311.49 1018.18,1315.18 1019.55,1318.37C1023.56,1327.69 1032.709,1333.71 1042.86,1333.71C1053.08,1333.71 1062.26,1327.63 1066.24,1318.22C1067.59,1315.02 1066.1,1311.34 1062.9,1309.99Z" style="fill:rgb(51,51,51);fill-rule:nonzero;"/>
            <g transform="matrix(1,0,0,1,-513,487)">
                <path d="M1537.72,899.729C1534.53,898.381 1530.84,899.873 1529.49,903.065C1525.45,912.615 1516.14,918.786 1505.78,918.786C1495.48,918.786 1486.2,912.675 1482.12,903.216C1480.75,900.031 1477.06,898.563 1473.88,899.933C1470.69,901.303 1469.22,904.995 1470.59,908.179C1476.65,922.248 1490.46,931.339 1505.78,931.339C1521.2,931.339 1535.05,922.16 1541.05,907.955C1542.41,904.763 1540.91,901.08 1537.72,899.729Z" style="fill:rgb(51,51,51);fill-rule:nonzero;"/>
            </g>
        </g>
    </g>
</svg>
