<?xml version="1.0" encoding="UTF-8" standalone="no"?>
<!DOCTYPE svg PUBLIC "-//W3C//DTD SVG 1.1//EN" "http://www.w3.org/Graphics/SVG/1.1/DTD/svg11.dtd">
<svg width="100%" height="100%" viewBox="0 0 264 264" version="1.1" xmlns="http://www.w3.org/2000/svg" xmlns:xlink="http://www.w3.org/1999/xlink" xml:space="preserve" xmlns:serif="http://www.serif.com/" style="fill-rule:evenodd;clip-rule:evenodd;stroke-linejoin:round;stroke-miterlimit:2;">
    <g transform="matrix(1,0,0,1,-862.133972,-718.200989)">
        <g id="emo_6">
            <path d="M909.613,765.68C932.136,743.157 962.081,730.753 993.933,730.753C1025.79,730.753 1055.73,743.157 1078.25,765.68C1100.78,788.203 1113.18,818.148 1113.18,850C1113.18,881.852 1100.78,911.798 1078.25,934.32C1055.73,956.843 1025.79,969.247 993.933,969.247C962.081,969.247 932.136,956.843 909.613,934.32C887.09,911.798 874.686,881.852 874.686,850C874.686,818.148 887.09,788.203 909.613,765.68ZM993.933,981.799C1029.14,981.799 1062.24,968.09 1087.13,943.196C1112.02,918.303 1125.73,885.205 1125.73,850C1125.73,814.795 1112.02,781.697 1087.13,756.804C1062.24,731.91 1029.14,718.201 993.933,718.201C958.728,718.201 925.63,731.91 900.737,756.804C875.843,781.697 862.134,814.795 862.134,850C862.134,885.205 875.843,918.303 900.737,943.196C925.63,968.09 958.728,981.799 993.933,981.799Z" style="fill:rgb(51,51,51);fill-rule:nonzero;"/>
            <path d="M938.201,835.439C946.52,835.439 953.264,828.695 953.264,820.376C953.264,812.058 946.52,805.314 938.201,805.314C929.882,805.314 923.138,812.058 923.138,820.376C923.138,828.695 929.882,835.439 938.201,835.439Z" style="fill:rgb(51,51,51);fill-rule:nonzero;"/>
            <path d="M1049.67,835.439C1057.98,835.439 1064.73,828.695 1064.73,820.376C1064.73,812.058 1057.98,805.314 1049.67,805.314C1041.35,805.314 1034.6,812.058 1034.6,820.376C1034.6,828.695 1041.35,835.439 1049.67,835.439Z" style="fill:rgb(51,51,51);fill-rule:nonzero;"/>
            <path d="M974.181,933.016C975.407,934.24 977.013,934.854 978.619,934.854C980.226,934.854 981.832,934.24 983.057,933.016L993.682,922.391L1004.31,933.016C1005.53,934.24 1007.14,934.854 1008.74,934.854C1010.35,934.854 1011.96,934.24 1013.18,933.016C1015.63,930.564 1015.63,926.591 1013.18,924.14L1002.56,913.515L1013.18,902.89C1015.63,900.438 1015.63,896.465 1013.18,894.014C1010.73,891.563 1006.76,891.563 1004.31,894.014L993.682,904.639L983.057,894.014C980.606,891.563 976.632,891.563 974.181,894.014C971.73,896.465 971.73,900.438 974.181,902.89L984.806,913.515L974.181,924.14C971.73,926.591 971.73,930.564 974.181,933.016Z" style="fill:rgb(51,51,51);fill-rule:nonzero;"/>
        </g>
    </g>
</svg>
