<?xml version="1.0" encoding="UTF-8" standalone="no"?>
<!DOCTYPE svg PUBLIC "-//W3C//DTD SVG 1.1//EN" "http://www.w3.org/Graphics/SVG/1.1/DTD/svg11.dtd">
<svg width="100%" height="100%" viewBox="0 0 264 264" version="1.1" xmlns="http://www.w3.org/2000/svg" xmlns:xlink="http://www.w3.org/1999/xlink" xml:space="preserve" xmlns:serif="http://www.serif.com/" style="fill-rule:evenodd;clip-rule:evenodd;stroke-linejoin:round;stroke-miterlimit:2;">
    <g transform="matrix(1,0,0,1,-350,-718.200989)">
        <g id="emo_5">
            <path d="M566.12,934.32C543.597,956.843 513.651,969.247 481.799,969.247C449.947,969.247 420.001,956.843 397.479,934.32C374.956,911.798 362.552,881.852 362.552,850C362.552,818.148 374.956,788.203 397.479,765.68C420.001,743.157 449.947,730.753 481.799,730.753C513.651,730.753 543.597,743.157 566.12,765.68C588.642,788.203 601.046,818.148 601.046,850C601.046,881.852 588.642,911.798 566.12,934.32ZM481.799,718.201C446.594,718.201 413.497,731.91 388.603,756.804C363.709,781.697 350,814.795 350,850C350,885.205 363.709,918.303 388.603,943.196C413.497,968.09 446.594,981.799 481.799,981.799C517.004,981.799 550.102,968.09 574.995,943.196C599.889,918.303 613.598,885.205 613.598,850C613.598,814.795 599.889,781.697 574.995,756.804C550.102,731.91 517.004,718.201 481.799,718.201Z" style="fill:rgb(51,51,51);fill-rule:nonzero;"/>
            <path d="M419.083,807.654C416.631,805.204 412.658,805.204 410.207,807.654C407.755,810.105 407.755,814.079 410.207,816.53L423.593,829.917L410.708,842.801C408.258,845.252 408.258,849.225 410.708,851.677C411.934,852.901 413.54,853.515 415.146,853.515C416.753,853.515 418.359,852.901 419.584,851.677L436.907,834.354C439.357,831.903 439.357,827.93 436.907,825.479L419.083,807.654Z" style="fill:rgb(51,51,51);fill-rule:nonzero;"/>
            <path d="M553.392,807.654C550.941,805.204 546.967,805.204 544.516,807.654L526.692,825.479C524.241,827.93 524.241,831.903 526.692,834.354L544.014,851.677C545.24,852.901 546.846,853.515 548.452,853.515C550.058,853.515 551.664,852.901 552.89,851.677C555.341,849.225 555.341,845.252 552.89,842.801L540.005,829.917L553.392,816.53C555.843,814.079 555.843,810.105 553.392,807.654Z" style="fill:rgb(51,51,51);fill-rule:nonzero;"/>
            <path d="M513.451,897.722C510.26,896.372 506.577,897.863 505.226,901.057C501.187,910.607 491.876,916.778 481.508,916.778C471.211,916.778 461.927,910.666 457.855,901.207C456.484,898.022 452.792,896.554 449.608,897.924C446.425,899.294 444.955,902.986 446.325,906.17C452.382,920.239 466.192,929.33 481.508,929.33C496.931,929.33 510.778,920.151 516.787,905.946C518.137,902.755 516.643,899.071 513.451,897.722Z" style="fill:rgb(51,51,51);fill-rule:nonzero;"/>
        </g>
    </g>
</svg>
