<?xml version="1.0" encoding="UTF-8" standalone="no"?>
<!DOCTYPE svg PUBLIC "-//W3C//DTD SVG 1.1//EN" "http://www.w3.org/Graphics/SVG/1.1/DTD/svg11.dtd">
<svg width="100%" height="100%" viewBox="0 0 264 264" version="1.1" xmlns="http://www.w3.org/2000/svg" xmlns:xlink="http://www.w3.org/1999/xlink" xml:space="preserve" xmlns:serif="http://www.serif.com/" style="fill-rule:evenodd;clip-rule:evenodd;stroke-linejoin:round;stroke-miterlimit:2;">
    <g transform="matrix(1,0,0,1,-1374.27002,-718.200989)">
        <g id="emo_7">
            <path d="M1590.39,934.32C1567.86,956.843 1537.92,969.247 1506.07,969.247C1474.21,969.247 1444.27,956.843 1421.75,934.32C1399.22,911.798 1386.82,881.852 1386.82,850C1386.82,818.148 1399.22,788.203 1421.75,765.68C1444.27,743.157 1474.21,730.753 1506.07,730.753C1537.92,730.753 1567.86,743.157 1590.39,765.68C1612.91,788.203 1625.31,818.148 1625.31,850C1625.31,881.852 1612.91,911.798 1590.39,934.32ZM1506.07,718.201C1470.86,718.201 1437.76,731.91 1412.87,756.804C1387.98,781.697 1374.27,814.795 1374.27,850C1374.27,885.205 1387.98,918.303 1412.87,943.196C1437.76,968.09 1470.86,981.799 1506.07,981.799C1541.27,981.799 1574.37,968.09 1599.26,943.196C1624.16,918.303 1637.87,885.205 1637.87,850C1637.87,814.795 1624.16,781.697 1599.26,756.804C1574.37,731.91 1541.27,718.201 1506.07,718.201Z" style="fill:rgb(51,51,51);fill-rule:nonzero;"/>
            <path d="M1537.72,899.729C1534.53,898.381 1530.84,899.873 1529.49,903.065C1525.45,912.615 1516.14,918.786 1505.78,918.786C1495.48,918.786 1486.2,912.675 1482.12,903.216C1480.75,900.031 1477.06,898.563 1473.88,899.933C1470.69,901.303 1469.22,904.995 1470.59,908.179C1476.65,922.248 1490.46,931.339 1505.78,931.339C1521.2,931.339 1535.05,922.16 1541.05,907.955C1542.41,904.763 1540.91,901.08 1537.72,899.729Z" style="fill:rgb(51,51,51);fill-rule:nonzero;"/>
            <path d="M1463.88,822.659C1463.79,822.156 1463.96,821.643 1464.32,821.286L1472.64,813.185C1473.56,812.287 1473.05,810.724 1471.78,810.539L1460.29,808.87C1459.78,808.796 1459.35,808.479 1459.12,808.021L1453.99,797.613C1453.42,796.46 1451.77,796.46 1451.2,797.613L1446.07,808.021C1445.84,808.479 1445.4,808.796 1444.9,808.87L1433.41,810.539C1432.14,810.724 1431.63,812.287 1432.55,813.185L1440.86,821.286C1441.23,821.643 1441.4,822.156 1441.31,822.659L1439.35,834.099C1439.13,835.366 1440.46,836.332 1441.6,835.734L1451.87,830.333C1452.32,830.095 1452.86,830.095 1453.32,830.333L1463.59,835.734C1464.73,836.332 1466.06,835.366 1465.84,834.099L1463.88,822.659Z" style="fill:rgb(51,51,51);fill-rule:nonzero;"/>
            <path d="M1578.72,810.539L1567.24,808.87C1566.73,808.796 1566.29,808.479 1566.07,808.021L1560.93,797.613C1560.36,796.46 1558.72,796.46 1558.15,797.613L1553.01,808.021C1552.79,808.479 1552.35,808.796 1551.84,808.87L1540.36,810.539C1539.09,810.724 1538.58,812.287 1539.5,813.185L1547.81,821.286C1548.17,821.643 1548.34,822.156 1548.26,822.659L1546.29,834.099C1546.08,835.366 1547.41,836.332 1548.54,835.734L1558.82,830.333C1559.27,830.095 1559.81,830.095 1560.26,830.333L1570.54,835.734C1571.67,836.332 1573,835.366 1572.79,834.099L1570.82,822.659C1570.74,822.156 1570.9,821.643 1571.27,821.286L1579.58,813.185C1580.5,812.287 1579.99,810.724 1578.72,810.539Z" style="fill:rgb(51,51,51);fill-rule:nonzero;"/>
        </g>
    </g>
</svg>
