<?xml version="1.0" encoding="UTF-8" standalone="no"?>
<!DOCTYPE svg PUBLIC "-//W3C//DTD SVG 1.1//EN" "http://www.w3.org/Graphics/SVG/1.1/DTD/svg11.dtd">
<svg width="100%" height="100%" viewBox="0 0 264 264" version="1.1" xmlns="http://www.w3.org/2000/svg" xmlns:xlink="http://www.w3.org/1999/xlink" xml:space="preserve" xmlns:serif="http://www.serif.com/" style="fill-rule:evenodd;clip-rule:evenodd;stroke-linejoin:round;stroke-miterlimit:2;">
    <g transform="matrix(1,0,0,1,-1886.400024,-227.029053)">
        <g id="emo_4">
            <path d="M2017.99,402.038C2002.57,402.038 1988.72,411.216 1982.71,425.421C1981.36,428.614 1982.85,432.296 1986.05,433.647C1986.84,433.984 1987.67,434.144 1988.49,434.144C1990.93,434.144 1993.26,432.706 1994.27,430.311C1998.31,420.761 2007.62,414.59 2017.99,414.59C2028.29,414.59 2037.57,420.702 2041.64,430.161C2043.01,433.345 2046.71,434.816 2049.889,433.444C2053.07,432.074 2054.54,428.382 2053.169,425.198C2047.12,411.128 2033.31,402.038 2017.99,402.038Z" style="fill:rgb(51,51,51);fill-rule:nonzero;"/>
            <path d="M2102.52,443.149C2080,465.672 2050.05,478.076 2018.2,478.076C1986.35,478.076 1956.4,465.672 1933.88,443.149C1911.36,420.626 1898.95,390.681 1898.95,358.829C1898.95,326.977 1911.36,297.031 1933.88,274.509C1956.4,251.985 1986.35,239.582 2018.2,239.582C2050.05,239.582 2080,251.985 2102.52,274.509C2125.04,297.031 2137.45,326.977 2137.45,358.829C2137.45,390.681 2125.04,420.626 2102.52,443.149ZM2018.2,227.029C1983,227.029 1949.9,240.739 1925,265.633C1900.11,290.526 1886.4,323.624 1886.4,358.829C1886.4,394.034 1900.11,427.131 1925,452.024C1949.9,476.918 1983,490.628 2018.2,490.628C2053.409,490.628 2086.5,476.918 2111.4,452.024C2136.29,427.131 2150,394.034 2150,358.829C2150,323.624 2136.29,290.526 2111.4,265.633C2086.5,240.739 2053.409,227.029 2018.2,227.029Z" style="fill:rgb(51,51,51);fill-rule:nonzero;"/>
            <path d="M1983.81,351.799C1985.41,351.799 1987.02,351.187 1988.25,349.961C1990.7,347.51 1990.7,343.537 1988.25,341.085L1979.88,332.72L1988.25,324.354C1990.7,321.903 1990.7,317.93 1988.25,315.479C1985.79,313.028 1981.82,313.028 1979.37,315.479L1971,323.844L1962.64,315.479C1960.19,313.028 1956.21,313.028 1953.76,315.479C1951.31,317.93 1951.31,321.903 1953.76,324.354L1962.13,332.72L1953.76,341.085C1951.31,343.537 1951.31,347.51 1953.76,349.961C1954.99,351.187 1956.59,351.799 1958.2,351.799C1959.81,351.799 1961.41,351.187 1962.64,349.961L1971,341.596L1979.37,349.961C1980.59,351.187 1982.2,351.799 1983.81,351.799Z" style="fill:rgb(51,51,51);fill-rule:nonzero;"/>
            <path d="M2082.639,315.479C2080.19,313.028 2076.21,313.028 2073.76,315.479L2065.399,323.844L2057.03,315.479C2054.58,313.028 2050.61,313.028 2048.159,315.479C2045.71,317.93 2045.71,321.903 2048.159,324.354L2056.52,332.72L2048.159,341.085C2045.71,343.537 2045.71,347.51 2048.159,349.961C2049.379,351.187 2050.99,351.799 2052.59,351.799C2054.2,351.799 2055.81,351.187 2057.03,349.961L2065.399,341.596L2073.76,349.961C2074.99,351.187 2076.59,351.799 2078.2,351.799C2079.81,351.799 2081.409,351.187 2082.639,349.961C2085.09,347.51 2085.09,343.537 2082.639,341.085L2074.27,332.72L2082.639,324.354C2085.09,321.903 2085.09,317.93 2082.639,315.479Z" style="fill:rgb(51,51,51);fill-rule:nonzero;"/>
        </g>
    </g>
</svg>
