<?xml version="1.0" encoding="UTF-8" standalone="no"?>
<!DOCTYPE svg PUBLIC "-//W3C//DTD SVG 1.1//EN" "http://www.w3.org/Graphics/SVG/1.1/DTD/svg11.dtd">
<svg width="100%" height="100%" viewBox="0 0 264 264" version="1.1" xmlns="http://www.w3.org/2000/svg" xmlns:xlink="http://www.w3.org/1999/xlink" xml:space="preserve" xmlns:serif="http://www.serif.com/" style="fill-rule:evenodd;clip-rule:evenodd;stroke-linejoin:round;stroke-miterlimit:2;">
    <g transform="matrix(1,0,0,1,-862.133972,-227.029053)">
        <g id="emo_2">
            <path d="M961.779,433.647C962.577,433.984 963.405,434.144 964.221,434.144C966.667,434.144 968.992,432.706 970.004,430.311C974.043,420.761 983.354,414.59 993.722,414.59C1004.02,414.59 1013.3,420.702 1017.38,430.161C1018.75,433.345 1022.44,434.815 1025.62,433.444C1028.81,432.074 1030.28,428.382 1028.9,425.198C1022.85,411.128 1009.04,402.038 993.722,402.038C978.3,402.038 964.452,411.216 958.443,425.421C957.093,428.614 958.586,432.296 961.779,433.647Z" style="fill:rgb(51,51,51);fill-rule:nonzero;"/>
            <path d="M909.613,274.509C932.136,251.985 962.081,239.582 993.933,239.582C1025.79,239.582 1055.73,251.985 1078.25,274.509C1100.78,297.031 1113.18,326.977 1113.18,358.829C1113.18,390.681 1100.78,420.626 1078.25,443.149C1055.73,465.672 1025.79,478.076 993.933,478.076C962.081,478.076 932.136,465.672 909.613,443.149C887.09,420.626 874.686,390.681 874.686,358.829C874.686,326.977 887.09,297.031 909.613,274.509ZM900.737,452.024C925.63,476.918 958.728,490.628 993.933,490.628C1029.14,490.628 1062.24,476.918 1087.13,452.024C1112.02,427.131 1125.73,394.034 1125.73,358.829C1125.73,323.624 1112.02,290.526 1087.13,265.633C1062.24,240.739 1029.14,227.029 993.933,227.029C958.728,227.029 925.63,240.739 900.737,265.633C875.843,290.526 862.134,323.624 862.134,358.829C862.134,394.034 875.843,427.131 900.737,452.024Z" style="fill:rgb(51,51,51);fill-rule:nonzero;"/>
            <path d="M935.727,338.745L922.842,351.629C920.391,354.081 920.391,358.054 922.842,360.505C924.068,361.73 925.674,362.343 927.28,362.343C928.887,362.343 930.493,361.73 931.718,360.505L949.041,343.183C951.492,340.732 951.492,336.758 949.041,334.307L931.216,316.483C928.766,314.032 924.791,314.032 922.34,316.483C919.889,318.934 919.889,322.908 922.34,325.359L935.727,338.745Z" style="fill:rgb(51,51,51);fill-rule:nonzero;"/>
            <path d="M1056.15,360.505C1057.37,361.73 1058.98,362.343 1060.59,362.343C1062.19,362.343 1063.8,361.73 1065.02,360.505C1067.47,358.054 1067.47,354.081 1065.02,351.629L1052.14,338.745L1065.53,325.359C1067.98,322.908 1067.98,318.934 1065.53,316.483C1063.08,314.032 1059.1,314.032 1056.65,316.483L1038.829,334.307C1036.37,336.758 1036.37,340.732 1038.829,343.183L1056.15,360.505Z" style="fill:rgb(51,51,51);fill-rule:nonzero;"/>
        </g>
    </g>
</svg>
